
<svg width="111" height="112" viewBox="0 0 111 112" fill="none" xmlns="http://www.w3.org/2000/svg">
<g clip-path="url(#clip0_2276_3700)">
<path fill-rule="evenodd" clip-rule="evenodd" d="M-45 -122H1395V668H-45V-122Z" fill="white"/>
<path fill-rule="evenodd" clip-rule="evenodd" d="M-45 -70H1395V648H-45V-70Z" fill="white"/>
<path fill-rule="evenodd" clip-rule="evenodd" d="M-45 -122H1395V668H-45V-122Z" fill="#222222" fill-opacity="0.1"/>
<path fill-rule="evenodd" clip-rule="evenodd" d="M-45 -51H1395V414H-45V-51Z" fill="white"/>
<path fill-rule="evenodd" clip-rule="evenodd" d="M-45 -50H287V414H-45V-50Z" fill="#004071"/>
<g opacity="0.3">
<path d="M92.0191 44.8832C93.0271 44.8832 93.8441 44.0662 93.8441 43.0592V23.2142C93.8441 20.1962 91.3881 17.7402 88.3701 17.7402H21.9481C18.9301 17.7402 16.4741 20.1962 16.4741 23.2142V105.694C16.4741 108.712 18.9301 111.168 21.9481 111.168H88.3701C91.3881 111.168 93.8441 108.712 93.8441 105.694V92.2502C93.8441 91.2432 93.0271 90.4262 92.0191 90.4262C91.0121 90.4262 90.1951 91.2432 90.1951 92.2502V105.694C90.1951 106.7 89.3761 107.519 88.3701 107.519H21.9481C20.9421 107.519 20.1241 106.7 20.1241 105.694V23.2142C20.1241 22.2082 20.9421 21.3902 21.9481 21.3902H88.3701C89.3761 21.3902 90.1951 22.2082 90.1951 23.2142V43.0602C90.1951 44.0672 91.0121 44.8842 92.0191 44.8842V44.8832Z" fill="white"/>
<path d="M55.159 27.5942C45.902 27.5942 38.371 35.1242 38.371 44.3822C38.371 49.1842 40.399 53.5212 43.641 56.5842C43.702 56.6492 43.767 56.7102 43.837 56.7662C46.825 59.4992 50.8 61.1692 55.159 61.1692C59.517 61.1692 63.493 59.4992 66.48 56.7662C66.55 56.7102 66.616 56.6482 66.676 56.5842C69.92 53.5212 71.946 49.1842 71.946 44.3822C71.946 35.1252 64.416 27.5942 55.159 27.5942V27.5942ZM55.159 57.5202C52.179 57.5202 49.429 56.5212 47.223 54.8432C48.827 51.9992 51.82 50.2212 55.159 50.2212C58.499 50.2212 61.491 51.9992 63.095 54.8432C60.888 56.5212 58.139 57.5202 55.159 57.5202ZM52.239 43.6522V42.4662C52.239 40.8562 53.549 39.5462 55.159 39.5462C56.769 39.5462 58.079 40.8562 58.079 42.4662V43.6522C58.079 45.2622 56.769 46.5722 55.159 46.5722C53.549 46.5722 52.239 45.2622 52.239 43.6522ZM65.732 52.1702C64.386 50.1742 62.521 48.6222 60.355 47.6642C61.215 46.5532 61.728 45.1622 61.728 43.6522V42.4662C61.728 38.8432 58.781 35.8962 55.159 35.8962C51.537 35.8962 48.589 38.8432 48.589 42.4662V43.6522C48.589 45.1622 49.103 46.5522 49.963 47.6642C47.797 48.6222 45.933 50.1742 44.586 52.1702C42.976 49.9902 42.021 47.2952 42.021 44.3822C42.021 37.1372 47.915 31.2432 55.159 31.2432C62.404 31.2432 68.297 37.1372 68.297 44.3822C68.297 47.2952 67.343 49.9892 65.732 52.1702V52.1702ZM65.013 97.6652H55.159C54.151 97.6652 53.334 98.4822 53.334 99.4902C53.334 100.497 54.151 101.314 55.159 101.314H65.013C66.02 101.314 66.838 100.497 66.838 99.4902C66.838 98.4822 66.02 97.6652 65.013 97.6652ZM65.013 87.4462H39.101C38.093 87.4462 37.276 88.2632 37.276 89.2712C37.276 90.2792 38.093 91.0962 39.101 91.0962H65.014C66.021 91.0962 66.839 90.2792 66.839 89.2712C66.839 88.2632 66.021 87.4462 65.014 87.4462H65.013ZM65.013 77.2272H39.101C38.093 77.2272 37.276 78.0442 37.276 79.0522C37.276 80.0602 38.093 80.8772 39.101 80.8772H65.014C66.021 80.8772 66.839 80.0602 66.839 79.0522C66.839 78.0442 66.021 77.2272 65.014 77.2272H65.013ZM32.597 67.5432C32.258 67.2042 31.787 67.0092 31.306 67.0092C30.826 67.0092 30.355 67.2042 30.016 67.5432C29.676 67.8832 29.481 68.3532 29.481 68.8332C29.481 69.3132 29.676 69.7842 30.016 70.1232C30.356 70.4632 30.826 70.6582 31.306 70.6582C31.787 70.6582 32.256 70.4632 32.597 70.1242C32.937 69.7842 33.132 69.3142 33.132 68.8342C33.132 68.3542 32.937 67.8832 32.597 67.5442V67.5432ZM32.597 77.7622C32.257 77.4222 31.787 77.2272 31.306 77.2272C30.826 77.2272 30.356 77.4232 30.016 77.7622C29.676 78.1022 29.481 78.5722 29.481 79.0522C29.481 79.5322 29.676 80.0022 30.016 80.3422C30.356 80.6822 30.826 80.8772 31.306 80.8772C31.787 80.8772 32.256 80.6822 32.597 80.3422C32.937 80.0022 33.132 79.5322 33.132 79.0522C33.132 78.5722 32.937 78.1022 32.597 77.7622ZM32.597 87.9802C32.257 87.6412 31.787 87.4462 31.306 87.4462C30.826 87.4462 30.356 87.6412 30.016 87.9812C29.676 88.3212 29.481 88.7912 29.481 89.2712C29.481 89.7512 29.676 90.2212 30.016 90.5612C30.355 90.9012 30.826 91.0962 31.306 91.0962C31.787 91.0962 32.258 90.9002 32.597 90.5612C32.937 90.2212 33.132 89.7512 33.132 89.2712C33.132 88.7912 32.937 88.3212 32.597 87.9812V87.9802ZM65.013 67.0092H39.101C38.093 67.0092 37.276 67.8262 37.276 68.8342C37.276 69.8412 38.093 70.6582 39.101 70.6582H65.014C66.021 70.6582 66.839 69.8412 66.839 68.8342C66.839 67.8262 66.021 67.0092 65.014 67.0092H65.013ZM106.069 41.5202C104.296 40.4972 102.231 40.2252 100.253 40.7552C98.276 41.2852 96.623 42.5532 95.6 44.3252L72.637 84.1002C72.511 84.3182 72.431 84.5602 72.404 84.8102L70.787 99.2882C70.707 100.008 71.06 100.708 71.688 101.071C71.972 101.235 72.286 101.316 72.6 101.316C72.982 101.316 73.362 101.196 73.683 100.96L85.413 92.3202C85.616 92.1722 85.785 91.9822 85.911 91.7642L108.874 51.9902C110.987 48.3302 109.729 43.6332 106.069 41.5202ZM74.877 95.5472L75.721 87.9872L81.002 91.0362L74.877 95.5472V95.5472ZM83.663 88.3572L76.71 84.3432L95.137 52.4262L102.09 56.4412L83.664 88.3582L83.663 88.3572ZM105.713 50.1652L103.915 53.2802L96.962 49.2662L98.76 46.1502C99.297 45.2222 100.162 44.5582 101.198 44.2802C102.234 44.0022 103.316 44.1452 104.244 44.6812C105.173 45.2172 105.837 46.0832 106.114 47.1192C106.392 48.1542 106.25 49.2362 105.714 50.1652H105.713Z" fill="white"/>
</g>


</g>
<defs>
<clipPath id="clip0_2276_3700">
<rect width="111" height="112" fill="white"/>
</clipPath>
</defs>
</svg>
